<svg width="410" height="272" viewBox="0 0 410 272" fill="none" xmlns="http://www.w3.org/2000/svg">
<g clip-path="url(#clip0_12_28)">
<g filter="url(#filter0_b_12_28)">
<rect width="410" height="272" rx="36" fill="url(#paint0_radial_12_28)" fill-opacity="0.7"/>
<rect x="0.5" y="0.5" width="409" height="271" rx="35.5" stroke="white" stroke-opacity="0.3" style="mix-blend-mode:overlay"/>
</g>
<path d="M27.7676 133.887C27.5983 133.568 27.7122 133.32 28.1094 133.145C28.487 132.975 28.8809 132.738 29.291 132.432C29.7012 132.126 30.0365 131.81 30.2969 131.484C30.5898 131.12 30.8698 130.938 31.1367 130.938H32.6895C33.0801 130.938 33.2754 131.133 33.2754 131.523V144.414C33.2754 144.805 33.0801 145 32.6895 145H31.127C30.7363 145 30.541 144.805 30.541 144.414V135.127C30.541 134.867 30.554 134.606 30.5801 134.346H30.541C30.3392 134.6 30.1178 134.818 29.877 135C29.6361 135.182 29.3919 135.326 29.1445 135.43C28.8385 135.56 28.6074 135.475 28.4512 135.176L27.7676 133.887ZM39.659 145C39.1707 145 38.9266 144.788 38.9266 144.365V143.896C38.9266 143.558 39.0828 143.223 39.3953 142.891L42.3152 139.814C43.1941 138.883 43.9982 138.057 44.7273 137.334C45.4565 136.605 45.8211 135.869 45.8211 135.127C45.8211 134.385 45.6355 133.841 45.2645 133.496C44.8999 133.145 44.4344 132.969 43.868 132.969C42.9695 132.969 42.3445 133.177 41.993 133.594C41.6414 134.01 41.3875 134.456 41.2312 134.932C41.0815 135.394 40.8081 135.56 40.4109 135.43L39.4246 135.098C39.1056 134.987 39.0145 134.681 39.1512 134.18C39.4051 133.249 39.9227 132.451 40.7039 131.787C41.4852 131.117 42.644 130.781 44.1805 130.781C45.782 130.781 46.9441 131.195 47.6668 132.021C48.3895 132.842 48.7508 133.734 48.7508 134.697C48.7508 135.96 48.2234 137.07 47.1687 138.027C46.1141 138.978 45.157 139.906 44.2977 140.811L42.6375 142.559V142.617C43.0281 142.591 43.3536 142.578 43.6141 142.578H48.1746C48.6629 142.578 48.907 142.79 48.907 143.213V144.365C48.907 144.788 48.6629 145 48.1746 145H39.659ZM54.2848 144.004C54.0309 143.789 54.0113 143.483 54.2262 143.086L54.6754 142.266C54.8902 141.868 55.2385 141.839 55.7203 142.178C56.124 142.464 56.5797 142.699 57.0875 142.881C57.5953 143.057 58.1617 143.145 58.7867 143.145C59.6461 143.145 60.2613 142.913 60.6324 142.451C61.0035 141.982 61.1891 141.458 61.1891 140.879C61.1891 140.286 60.9677 139.756 60.525 139.287C60.0888 138.812 59.4703 138.574 58.6695 138.574H57.9176C57.4944 138.574 57.2828 138.402 57.2828 138.057V136.982C57.2828 136.624 57.4944 136.445 57.9176 136.445H58.5035C59.1025 136.445 59.6298 136.26 60.0855 135.889C60.5478 135.518 60.7789 135.052 60.7789 134.492C60.7789 134.056 60.6259 133.695 60.3199 133.408C60.0204 133.115 59.5289 132.969 58.8453 132.969C58.2008 132.969 57.6441 133.063 57.1754 133.252C56.7066 133.441 56.3355 133.669 56.0621 133.936C55.6715 134.32 55.3362 134.303 55.0562 133.887L54.4898 133.057C54.275 132.744 54.3401 132.425 54.6852 132.1C55.1539 131.65 55.7594 131.318 56.5016 131.104C57.2437 130.889 57.9697 130.781 58.6793 130.781C60.3525 130.781 61.596 131.117 62.4098 131.787C63.2236 132.451 63.6305 133.265 63.6305 134.229C63.6305 134.945 63.3505 135.599 62.7906 136.191C62.2307 136.777 61.6383 137.181 61.0133 137.402V137.441C61.7555 137.624 62.4586 138.024 63.1227 138.643C63.7867 139.255 64.1187 140.016 64.1187 140.928C64.1187 142.354 63.6695 143.444 62.7711 144.199C61.8727 144.954 60.5022 145.332 58.6598 145.332C57.885 145.332 57.081 145.215 56.2477 144.98C55.4208 144.74 54.7665 144.414 54.2848 144.004ZM69.1449 141.953C68.7217 141.953 68.5102 141.742 68.5102 141.318V140.029C68.5102 139.658 68.6078 139.336 68.8031 139.062L74.2133 131.445C74.4542 131.107 74.7569 130.938 75.1215 130.938H76.557C76.9867 130.938 77.2016 131.149 77.2016 131.572V139.531H78.3832C78.8064 139.531 79.018 139.743 79.018 140.166V141.318C79.018 141.742 78.8096 141.953 78.393 141.953H77.2016V144.365C77.2016 144.788 76.99 145 76.5668 145H75.102C74.6788 145 74.4672 144.788 74.4672 144.365V141.953H69.1449ZM71.2348 139.531H74.4672V135.752C74.4672 135.492 74.4802 135.231 74.5062 134.971H74.4672L71.2348 139.531ZM94.0801 144.014C93.8652 143.727 93.8359 143.48 93.9922 143.271L94.6758 142.334C94.9492 141.956 95.2812 141.947 95.6719 142.305C95.9062 142.52 96.2676 142.715 96.7559 142.891C97.2441 143.06 97.7324 143.145 98.2207 143.145C98.9629 143.145 99.5879 142.936 100.096 142.52C100.61 142.103 100.867 141.494 100.867 140.693C100.867 139.932 100.704 139.316 100.379 138.848C100.053 138.379 99.6595 138.145 99.1973 138.145C98.8001 138.145 98.4355 138.177 98.1035 138.242C97.7715 138.301 97.4264 138.486 97.0684 138.799C96.821 139.014 96.5215 139.121 96.1699 139.121H95.1055C94.6823 139.121 94.4707 138.91 94.4707 138.486V131.748C94.4707 131.325 94.6823 131.113 95.1055 131.113H102.137C102.56 131.113 102.771 131.325 102.771 131.748V132.9C102.771 133.324 102.56 133.535 102.137 133.535H97.2051V135.928C97.2051 136.188 97.1921 136.449 97.166 136.709H97.2246C97.5697 136.41 97.9538 136.211 98.377 136.113C98.8001 136.009 99.2526 135.957 99.7344 135.957C100.874 135.957 101.834 136.348 102.615 137.129C103.403 137.904 103.797 139.105 103.797 140.732C103.797 142.23 103.296 143.372 102.293 144.16C101.297 144.941 100.112 145.332 98.7383 145.332C97.5924 145.332 96.5996 145.208 95.7598 144.961C94.9264 144.707 94.3665 144.391 94.0801 144.014ZM109.018 141.953C108.595 141.953 108.384 141.742 108.384 141.318V140.029C108.384 139.658 108.481 139.336 108.677 139.062L114.087 131.445C114.328 131.107 114.63 130.938 114.995 130.938H116.43C116.86 130.938 117.075 131.149 117.075 131.572V139.531H118.257C118.68 139.531 118.891 139.743 118.891 140.166V141.318C118.891 141.742 118.683 141.953 118.266 141.953H117.075V144.365C117.075 144.788 116.863 145 116.44 145H114.975C114.552 145 114.341 144.788 114.341 144.365V141.953H109.018ZM111.108 139.531H114.341V135.752C114.341 135.492 114.354 135.231 114.38 134.971H114.341L111.108 139.531ZM123.996 144.004C123.742 143.789 123.722 143.483 123.937 143.086L124.386 142.266C124.601 141.868 124.949 141.839 125.431 142.178C125.835 142.464 126.291 142.699 126.798 142.881C127.306 143.057 127.873 143.145 128.498 143.145C129.357 143.145 129.972 142.913 130.343 142.451C130.714 141.982 130.9 141.458 130.9 140.879C130.9 140.286 130.679 139.756 130.236 139.287C129.8 138.812 129.181 138.574 128.38 138.574H127.629C127.205 138.574 126.994 138.402 126.994 138.057V136.982C126.994 136.624 127.205 136.445 127.629 136.445H128.214C128.813 136.445 129.341 136.26 129.796 135.889C130.259 135.518 130.49 135.052 130.49 134.492C130.49 134.056 130.337 133.695 130.031 133.408C129.731 133.115 129.24 132.969 128.556 132.969C127.912 132.969 127.355 133.063 126.886 133.252C126.418 133.441 126.046 133.669 125.773 133.936C125.382 134.32 125.047 134.303 124.767 133.887L124.201 133.057C123.986 132.744 124.051 132.425 124.396 132.1C124.865 131.65 125.47 131.318 126.213 131.104C126.955 130.889 127.681 130.781 128.39 130.781C130.063 130.781 131.307 131.117 132.121 131.787C132.935 132.451 133.341 133.265 133.341 134.229C133.341 134.945 133.061 135.599 132.502 136.191C131.942 136.777 131.349 137.181 130.724 137.402V137.441C131.466 137.624 132.17 138.024 132.834 138.643C133.498 139.255 133.83 140.016 133.83 140.928C133.83 142.354 133.38 143.444 132.482 144.199C131.584 144.954 130.213 145.332 128.371 145.332C127.596 145.332 126.792 145.215 125.959 144.98C125.132 144.74 124.477 144.414 123.996 144.004ZM139.207 145C138.719 145 138.475 144.788 138.475 144.365V143.896C138.475 143.558 138.631 143.223 138.944 142.891L141.864 139.814C142.743 138.883 143.547 138.057 144.276 137.334C145.005 136.605 145.37 135.869 145.37 135.127C145.37 134.385 145.184 133.841 144.813 133.496C144.448 133.145 143.983 132.969 143.416 132.969C142.518 132.969 141.893 133.177 141.541 133.594C141.19 134.01 140.936 134.456 140.78 134.932C140.63 135.394 140.357 135.56 139.959 135.43L138.973 135.098C138.654 134.987 138.563 134.681 138.7 134.18C138.954 133.249 139.471 132.451 140.252 131.787C141.034 131.117 142.192 130.781 143.729 130.781C145.33 130.781 146.493 131.195 147.215 132.021C147.938 132.842 148.299 133.734 148.299 134.697C148.299 135.96 147.772 137.07 146.717 138.027C145.662 138.978 144.705 139.906 143.846 140.811L142.186 142.559V142.617C142.577 142.591 142.902 142.578 143.162 142.578H147.723C148.211 142.578 148.455 142.79 148.455 143.213V144.365C148.455 144.788 148.211 145 147.723 145H139.207ZM163.43 138.447C163.43 135.511 163.954 133.499 165.002 132.412C166.057 131.325 167.385 130.781 168.986 130.781C169.611 130.781 170.233 130.872 170.852 131.055C171.47 131.23 171.945 131.465 172.277 131.758C172.59 132.038 172.658 132.311 172.482 132.578L171.838 133.545C171.63 133.864 171.327 133.864 170.93 133.545C170.734 133.389 170.448 133.255 170.07 133.145C169.699 133.027 169.309 132.969 168.898 132.969C168.215 132.969 167.587 133.291 167.014 133.936C166.441 134.574 166.154 135.661 166.154 137.197H166.193C166.486 136.755 166.893 136.439 167.414 136.25C167.935 136.055 168.57 135.957 169.318 135.957C170.679 135.957 171.708 136.406 172.404 137.305C173.101 138.197 173.449 139.303 173.449 140.625C173.449 142.057 173.042 143.2 172.229 144.053C171.415 144.906 170.171 145.332 168.498 145.332C166.714 145.332 165.422 144.736 164.621 143.545C163.827 142.347 163.43 140.648 163.43 138.447ZM166.633 140.674C166.633 141.468 166.796 142.08 167.121 142.51C167.447 142.933 167.922 143.145 168.547 143.145C169.211 143.145 169.706 142.965 170.031 142.607C170.357 142.249 170.52 141.582 170.52 140.605C170.52 139.746 170.357 139.121 170.031 138.73C169.706 138.34 169.25 138.145 168.664 138.145C168.02 138.145 167.518 138.408 167.16 138.936C166.809 139.463 166.633 140.042 166.633 140.674ZM178.934 133.535C178.511 133.535 178.3 133.324 178.3 132.9V131.748C178.3 131.325 178.511 131.113 178.934 131.113H186.903C187.326 131.113 187.538 131.325 187.538 131.748V132.852C187.538 133.184 187.375 133.532 187.05 133.896C185.715 135.4 184.781 136.901 184.247 138.398C183.713 139.896 183.446 141.702 183.446 143.818V144.424C183.446 144.847 183.235 145.059 182.811 145.059H181.346C180.923 145.059 180.712 144.847 180.712 144.424V144.16C180.712 141.81 181.099 139.834 181.874 138.232C182.655 136.631 183.69 135.065 184.979 133.535V133.496C184.719 133.522 184.458 133.535 184.198 133.535H178.934ZM192.388 141.26C192.388 140.14 192.73 139.271 193.414 138.652C194.104 138.027 194.696 137.646 195.191 137.51V137.461C194.638 137.285 194.097 136.94 193.57 136.426C193.049 135.905 192.789 135.221 192.789 134.375C192.789 133.359 193.199 132.507 194.019 131.816C194.846 131.126 195.976 130.781 197.408 130.781C198.84 130.781 199.966 131.126 200.787 131.816C201.614 132.507 202.027 133.359 202.027 134.375C202.027 135.221 201.763 135.905 201.236 136.426C200.715 136.94 200.178 137.285 199.625 137.461V137.51C200.119 137.646 200.709 138.027 201.392 138.652C202.082 139.271 202.427 140.14 202.427 141.26C202.427 142.464 202.033 143.444 201.246 144.199C200.464 144.954 199.185 145.332 197.408 145.332C195.63 145.332 194.348 144.954 193.56 144.199C192.779 143.444 192.388 142.464 192.388 141.26ZM195.318 140.967C195.318 141.702 195.481 142.249 195.806 142.607C196.132 142.965 196.666 143.145 197.408 143.145C198.15 143.145 198.684 142.965 199.009 142.607C199.335 142.249 199.498 141.702 199.498 140.967C199.498 140.407 199.319 139.893 198.961 139.424C198.609 138.949 198.091 138.711 197.408 138.711C196.724 138.711 196.203 138.949 195.845 139.424C195.494 139.893 195.318 140.407 195.318 140.967ZM195.64 134.668C195.64 135.189 195.787 135.599 196.08 135.898C196.379 136.198 196.822 136.348 197.408 136.348C197.994 136.348 198.433 136.198 198.726 135.898C199.026 135.599 199.175 135.189 199.175 134.668C199.175 134.147 199.019 133.734 198.707 133.428C198.401 133.122 197.968 132.969 197.408 132.969C196.848 132.969 196.412 133.122 196.099 133.428C195.793 133.734 195.64 134.147 195.64 134.668ZM207.688 144.014C207.473 143.727 207.444 143.48 207.6 143.271L208.284 142.334C208.557 141.956 208.889 141.947 209.28 142.305C209.514 142.52 209.875 142.715 210.364 142.891C210.852 143.06 211.34 143.145 211.829 143.145C212.571 143.145 213.196 142.936 213.704 142.52C214.218 142.103 214.475 141.494 214.475 140.693C214.475 139.932 214.312 139.316 213.987 138.848C213.661 138.379 213.267 138.145 212.805 138.145C212.408 138.145 212.043 138.177 211.711 138.242C211.379 138.301 211.034 138.486 210.676 138.799C210.429 139.014 210.129 139.121 209.778 139.121H208.713C208.29 139.121 208.079 138.91 208.079 138.486V131.748C208.079 131.325 208.29 131.113 208.713 131.113H215.745C216.168 131.113 216.379 131.325 216.379 131.748V132.9C216.379 133.324 216.168 133.535 215.745 133.535H210.813V135.928C210.813 136.188 210.8 136.449 210.774 136.709H210.832C211.177 136.41 211.562 136.211 211.985 136.113C212.408 136.009 212.86 135.957 213.342 135.957C214.482 135.957 215.442 136.348 216.223 137.129C217.011 137.904 217.405 139.105 217.405 140.732C217.405 142.23 216.903 143.372 215.901 144.16C214.905 144.941 213.72 145.332 212.346 145.332C211.2 145.332 210.207 145.208 209.368 144.961C208.534 144.707 207.974 144.391 207.688 144.014ZM232.262 141.26C232.262 140.14 232.604 139.271 233.287 138.652C233.977 138.027 234.57 137.646 235.064 137.51V137.461C234.511 137.285 233.971 136.94 233.443 136.426C232.923 135.905 232.662 135.221 232.662 134.375C232.662 133.359 233.072 132.507 233.893 131.816C234.719 131.126 235.849 130.781 237.281 130.781C238.714 130.781 239.84 131.126 240.66 131.816C241.487 132.507 241.9 133.359 241.9 134.375C241.9 135.221 241.637 135.905 241.109 136.426C240.589 136.94 240.051 137.285 239.498 137.461V137.51C239.993 137.646 240.582 138.027 241.266 138.652C241.956 139.271 242.301 140.14 242.301 141.26C242.301 142.464 241.907 143.444 241.119 144.199C240.338 144.954 239.059 145.332 237.281 145.332C235.504 145.332 234.221 144.954 233.434 144.199C232.652 143.444 232.262 142.464 232.262 141.26ZM235.191 140.967C235.191 141.702 235.354 142.249 235.68 142.607C236.005 142.965 236.539 143.145 237.281 143.145C238.023 143.145 238.557 142.965 238.883 142.607C239.208 142.249 239.371 141.702 239.371 140.967C239.371 140.407 239.192 139.893 238.834 139.424C238.482 138.949 237.965 138.711 237.281 138.711C236.598 138.711 236.077 138.949 235.719 139.424C235.367 139.893 235.191 140.407 235.191 140.967ZM235.514 134.668C235.514 135.189 235.66 135.599 235.953 135.898C236.253 136.198 236.695 136.348 237.281 136.348C237.867 136.348 238.307 136.198 238.6 135.898C238.899 135.599 239.049 135.189 239.049 134.668C239.049 134.147 238.893 133.734 238.58 133.428C238.274 133.122 237.841 132.969 237.281 132.969C236.721 132.969 236.285 133.122 235.973 133.428C235.667 133.734 235.514 134.147 235.514 134.668ZM247.18 135.488C247.18 134.056 247.587 132.913 248.401 132.061C249.215 131.208 250.458 130.781 252.132 130.781C253.915 130.781 255.205 131.38 255.999 132.578C256.8 133.77 257.2 135.465 257.2 137.666C257.2 140.602 256.673 142.614 255.618 143.701C254.57 144.788 253.245 145.332 251.643 145.332C251.018 145.332 250.397 145.241 249.778 145.059C249.16 144.883 248.684 144.648 248.352 144.355C248.04 144.076 247.971 143.802 248.147 143.535L248.792 142.568C249 142.249 249.303 142.249 249.7 142.568C249.895 142.725 250.179 142.861 250.55 142.979C250.927 143.089 251.321 143.145 251.731 143.145C252.415 143.145 253.043 142.826 253.616 142.188C254.189 141.543 254.475 140.452 254.475 138.916H254.436C254.143 139.359 253.736 139.678 253.216 139.873C252.695 140.062 252.06 140.156 251.311 140.156C249.951 140.156 248.922 139.71 248.225 138.818C247.529 137.92 247.18 136.81 247.18 135.488ZM250.11 135.508C250.11 136.367 250.273 136.992 250.598 137.383C250.924 137.773 251.38 137.969 251.966 137.969C252.61 137.969 253.108 137.705 253.46 137.178C253.818 136.65 253.997 136.071 253.997 135.439C253.997 134.645 253.834 134.036 253.509 133.613C253.183 133.184 252.708 132.969 252.083 132.969C251.419 132.969 250.924 133.148 250.598 133.506C250.273 133.864 250.11 134.531 250.11 135.508ZM262.705 133.535C262.282 133.535 262.07 133.324 262.07 132.9V131.748C262.07 131.325 262.282 131.113 262.705 131.113H270.673C271.097 131.113 271.308 131.325 271.308 131.748V132.852C271.308 133.184 271.145 133.532 270.82 133.896C269.485 135.4 268.551 136.901 268.017 138.398C267.483 139.896 267.216 141.702 267.216 143.818V144.424C267.216 144.847 267.005 145.059 266.582 145.059H265.117C264.694 145.059 264.482 144.847 264.482 144.424V144.16C264.482 141.81 264.869 139.834 265.644 138.232C266.425 136.631 267.461 135.065 268.75 133.535V133.496C268.489 133.522 268.229 133.535 267.968 133.535H262.705ZM276.539 144.014C276.325 143.727 276.295 143.48 276.452 143.271L277.135 142.334C277.409 141.956 277.741 141.947 278.131 142.305C278.366 142.52 278.727 142.715 279.215 142.891C279.704 143.06 280.192 143.145 280.68 143.145C281.422 143.145 282.047 142.936 282.555 142.52C283.069 142.103 283.327 141.494 283.327 140.693C283.327 139.932 283.164 139.316 282.838 138.848C282.513 138.379 282.119 138.145 281.657 138.145C281.26 138.145 280.895 138.177 280.563 138.242C280.231 138.301 279.886 138.486 279.528 138.799C279.28 139.014 278.981 139.121 278.629 139.121H277.565C277.142 139.121 276.93 138.91 276.93 138.486V131.748C276.93 131.325 277.142 131.113 277.565 131.113H284.596C285.019 131.113 285.231 131.325 285.231 131.748V132.9C285.231 133.324 285.019 133.535 284.596 133.535H279.664V135.928C279.664 136.188 279.651 136.449 279.625 136.709H279.684C280.029 136.41 280.413 136.211 280.836 136.113C281.26 136.009 281.712 135.957 282.194 135.957C283.333 135.957 284.293 136.348 285.075 137.129C285.862 137.904 286.256 139.105 286.256 140.732C286.256 142.23 285.755 143.372 284.752 144.16C283.756 144.941 282.571 145.332 281.198 145.332C280.052 145.332 279.059 145.208 278.219 144.961C277.386 144.707 276.826 144.391 276.539 144.014Z" fill="url(#paint1_linear_12_28)"/>
<path d="M28.0215 39C27.6113 39 27.4062 38.7803 27.4062 38.3408V27.0557C27.4062 26.6162 27.6113 26.3965 28.0215 26.3965H30.5703C30.9102 26.3965 31.1533 26.6309 31.2998 27.0996L33.6816 34.8076C33.7871 35.1416 33.8604 35.417 33.9014 35.6338C33.9424 35.8447 33.9775 36.0967 34.0068 36.3896H34.0596C34.0889 36.0967 34.124 35.8447 34.165 35.6338C34.2061 35.417 34.2793 35.1416 34.3848 34.8076L36.7666 27.0996C36.9131 26.6309 37.1562 26.3965 37.4961 26.3965H40.0449C40.4551 26.3965 40.6602 26.6162 40.6602 27.0557V38.3408C40.6602 38.7803 40.4551 39 40.0449 39H38.709C38.2988 39 38.0938 38.7803 38.0938 38.3408V31.0811C38.0938 30.7295 38.1084 30.3779 38.1377 30.0264H38.0762L35.5361 38.2881C35.3896 38.7627 35.1377 39 34.7803 39H33.2861C32.9287 39 32.6768 38.7627 32.5303 38.2881L29.9902 30.0264H29.9287C29.958 30.3779 29.9727 30.7295 29.9727 31.0811V38.3408C29.9727 38.7803 29.7676 39 29.3574 39H28.0215ZM44.4479 39C44.0377 39 43.8327 38.7803 43.8327 38.3408V27.0557C43.8327 26.6162 44.0377 26.3965 44.4479 26.3965H51.9889C52.4284 26.3965 52.6481 26.5869 52.6481 26.9678V28.0049C52.6481 28.3857 52.4284 28.5762 51.9889 28.5762H46.3991V31.3711H51.5231C51.9625 31.3711 52.1823 31.5615 52.1823 31.9424V32.9795C52.1823 33.3604 51.9625 33.5508 51.5231 33.5508H46.3991V36.8203H52.2702C52.7096 36.8203 52.9293 37.0107 52.9293 37.3916V38.4287C52.9293 38.8096 52.7096 39 52.2702 39H44.4479ZM54.7923 32.6982C54.7923 30.6768 55.3196 29.0713 56.3743 27.8818C57.429 26.6924 58.9231 26.0977 60.8567 26.0977C62.0227 26.0977 62.9368 26.2471 63.5989 26.5459C64.2669 26.8447 64.8528 27.3076 65.3567 27.9346C65.6614 28.3154 65.6526 28.6113 65.3304 28.8223L64.3284 29.4727C64.0354 29.666 63.722 29.5811 63.388 29.2178C63.1126 28.9189 62.7639 28.6699 62.3421 28.4707C61.9202 28.2715 61.4544 28.1719 60.9446 28.1719C59.7141 28.1719 58.8382 28.5615 58.3167 29.3408C57.7952 30.1143 57.5345 31.2334 57.5345 32.6982C57.5345 34.1631 57.7952 35.2852 58.3167 36.0645C58.8382 36.8379 59.7141 37.2246 60.9446 37.2246C61.5423 37.2246 62.0579 37.166 62.4915 37.0488C62.9251 36.9258 63.3352 36.7061 63.722 36.3896V34.8164H61.8147C61.3753 34.8164 61.1555 34.626 61.1555 34.2451V33.208C61.1555 32.8271 61.3753 32.6367 61.8147 32.6367H65.6292C66.0686 32.6367 66.2884 32.8271 66.2884 33.208V37.6729C65.468 38.2764 64.6389 38.6982 63.8011 38.9385C62.969 39.1787 61.9876 39.2988 60.8567 39.2988C58.9524 39.2988 57.4641 38.7041 56.3919 37.5146C55.3255 36.3252 54.7923 34.7197 54.7923 32.6982ZM68.6435 39C68.2216 39 68.0839 38.8066 68.2304 38.4199L72.537 27.1084C72.7187 26.6338 72.9941 26.3965 73.3632 26.3965H74.5937C74.9628 26.3965 75.2382 26.6338 75.4198 27.1084L79.7265 38.4199C79.873 38.8066 79.7353 39 79.3134 39H77.9159C77.5292 39 77.2597 38.7979 77.1073 38.3936L76.2109 36.0293H71.746L70.8495 38.3936C70.6972 38.7979 70.4277 39 70.0409 39H68.6435ZM72.5634 33.8496H75.3935L74.3124 31.0547C74.1835 30.7266 74.1044 30.4893 74.0751 30.3428C74.0517 30.1904 74.0253 29.9678 73.996 29.6748H73.9609C73.9316 29.9678 73.9023 30.1904 73.873 30.3428C73.8495 30.4893 73.7734 30.7266 73.6445 31.0547L72.5634 33.8496ZM82.3541 39C81.8853 39 81.6509 38.7803 81.6509 38.3408V27.0557C81.6509 26.6162 81.8853 26.3965 82.3541 26.3965H85.3423C87.5923 26.3965 89.1099 26.6748 89.8951 27.2314C90.6861 27.7822 91.0816 28.6318 91.0816 29.7803C91.0816 30.583 90.7857 31.2041 90.1939 31.6436C89.608 32.083 89.0396 32.3379 88.4888 32.4082V32.4346C89.022 32.4697 89.649 32.7393 90.3697 33.2432C91.0904 33.7471 91.4507 34.459 91.4507 35.3789C91.4507 36.457 91.0113 37.3301 90.1324 37.998C89.2535 38.666 87.8033 39 85.7818 39H82.3541ZM84.2173 36.8555H85.5005C86.7427 36.8555 87.5865 36.7471 88.0318 36.5303C88.483 36.3135 88.7086 35.874 88.7086 35.2119C88.7086 34.5908 88.4478 34.1631 87.9263 33.9287C87.4107 33.6885 86.6021 33.5684 85.5005 33.5684H84.2173V36.8555ZM84.2173 31.4941H85.3687C86.1246 31.4941 86.8306 31.3623 87.4869 31.0986C88.149 30.835 88.48 30.4248 88.48 29.8682C88.48 29.4346 88.2955 29.1064 87.9263 28.8838C87.563 28.6553 86.7105 28.541 85.3687 28.541H84.2173V31.4941ZM93.7443 39C93.3225 39 93.1848 38.8066 93.3313 38.4199L97.6379 27.1084C97.8195 26.6338 98.0949 26.3965 98.4641 26.3965H99.6945C100.064 26.3965 100.339 26.6338 100.521 27.1084L104.827 38.4199C104.974 38.8066 104.836 39 104.414 39H103.017C102.63 39 102.361 38.7979 102.208 38.3936L101.312 36.0293H96.8469L95.9504 38.3936C95.798 38.7979 95.5285 39 95.1418 39H93.7443ZM97.6643 33.8496H100.494L99.4133 31.0547C99.2844 30.7266 99.2053 30.4893 99.176 30.3428C99.1525 30.1904 99.1262 29.9678 99.0969 29.6748H99.0617C99.0324 29.9678 99.0031 30.1904 98.9738 30.3428C98.9504 30.4893 98.8742 30.7266 98.7453 31.0547L97.6643 33.8496ZM107.367 39C106.957 39 106.752 38.7803 106.752 38.3408V27.0557C106.752 26.6162 106.957 26.3965 107.367 26.3965H108.668C109.172 26.3965 109.553 26.6016 109.81 27.0117L114.293 34.21H114.354C114.325 33.8584 114.31 33.5068 114.31 33.1553V27.0557C114.31 26.6162 114.515 26.3965 114.926 26.3965H116.262C116.672 26.3965 116.877 26.6162 116.877 27.0557V38.3408C116.877 38.7803 116.672 39 116.262 39H115.049C114.545 39 114.164 38.7949 113.906 38.3848L109.336 31.0547H109.274C109.304 31.4062 109.318 31.7578 109.318 32.1094V38.3408C109.318 38.7803 109.113 39 108.703 39H107.367ZM120.665 39C120.254 39 120.049 38.7803 120.049 38.3408V27.0557C120.049 26.6162 120.254 26.3965 120.665 26.3965H122C122.411 26.3965 122.616 26.6162 122.616 27.0557V30.5537C122.616 30.9053 122.601 31.2568 122.572 31.6084H122.633L126.905 26.915C127.221 26.5693 127.491 26.3965 127.713 26.3965H129.48C130.166 26.3965 130.277 26.6484 129.814 27.1523L125.815 31.5293L130.095 38.2441C130.417 38.748 130.306 39 129.761 39H128.118C127.813 39 127.549 38.8271 127.327 38.4814L124.092 33.4102L122.616 35.0713V38.3408C122.616 38.7803 122.411 39 122 39H120.665Z" fill="#997BC5" fill-opacity="0.9"/>
<path d="M1 166H410V236C410 255.882 393.882 272 374 272H307.75H205.5H37C17.1177 272 1 255.882 1 236V166Z" fill="url(#paint2_linear_12_28)"/>
<path d="M27.2324 190.324C27.1755 190.174 27.229 190.099 27.3931 190.099H27.9365C28.0892 190.099 28.194 190.177 28.251 190.334L29.2969 193.188C29.3493 193.334 29.38 193.432 29.3892 193.482C29.3983 193.53 29.4085 193.611 29.4199 193.725H29.4336C29.445 193.611 29.4552 193.53 29.4644 193.482C29.4735 193.432 29.5042 193.334 29.5566 193.188L30.6025 190.334C30.6595 190.177 30.7643 190.099 30.917 190.099H31.4604C31.6245 190.099 31.6781 190.174 31.6211 190.324L29.9873 194.723C29.9189 194.908 29.8118 195 29.666 195H29.1875C29.0417 195 28.9346 194.908 28.8662 194.723L27.2324 190.324ZM31.4637 195C31.2997 195 31.2461 194.925 31.3031 194.774L32.9779 190.375C33.0485 190.191 33.1556 190.099 33.2992 190.099H33.7777C33.9212 190.099 34.0283 190.191 34.099 190.375L35.7738 194.774C35.8308 194.925 35.7772 195 35.6131 195H35.0697C34.9193 195 34.8145 194.921 34.7552 194.764L34.4066 193.845H32.6703L32.3216 194.764C32.2624 194.921 32.1576 195 32.0072 195H31.4637ZM32.9881 192.997H34.0887L33.6683 191.91C33.6182 191.783 33.5874 191.69 33.576 191.633C33.5669 191.574 33.5567 191.487 33.5453 191.374H33.5316C33.5202 191.487 33.5088 191.574 33.4974 191.633C33.4883 191.69 33.4587 191.783 33.4086 191.91L32.9881 192.997ZM36.7614 195C36.6019 195 36.5222 194.915 36.5222 194.744V190.355C36.5222 190.184 36.6019 190.099 36.7614 190.099H37.3152C37.4519 190.099 37.5202 190.184 37.5202 190.355V194.152H39.5129C39.6838 194.152 39.7693 194.226 39.7693 194.375V194.778C39.7693 194.926 39.6838 195 39.5129 195H36.7614ZM40.8731 195C40.7136 195 40.6339 194.915 40.6339 194.744V190.355C40.6339 190.184 40.7136 190.099 40.8731 190.099H41.3927C41.5522 190.099 41.6319 190.184 41.6319 190.355V194.744C41.6319 194.915 41.5522 195 41.3927 195H40.8731ZM43.1049 195C42.9454 195 42.8657 194.915 42.8657 194.744V190.355C42.8657 190.184 42.9454 190.099 43.1049 190.099H44.2978C45.346 190.099 46.0546 190.311 46.4238 190.734C46.7952 191.158 46.9809 191.761 46.9809 192.542C46.9809 193.324 46.7952 193.929 46.4238 194.357C46.0546 194.786 45.346 195 44.2978 195H43.1049ZM43.8637 194.152H44.2329C44.9392 194.152 45.3961 194.021 45.6035 193.759C45.8108 193.495 45.9145 193.089 45.9145 192.542C45.9145 191.996 45.8108 191.592 45.6035 191.333C45.3961 191.07 44.9392 190.939 44.2329 190.939H43.8637V194.152ZM50.32 190.974C50.1491 190.974 50.0636 190.9 50.0636 190.751V190.321C50.0636 190.173 50.1491 190.099 50.32 190.099H53.8337C54.0046 190.099 54.09 190.173 54.09 190.321V190.751C54.09 190.9 54.0046 190.974 53.8337 190.974H52.5758V194.812C52.5758 194.937 52.5189 195 52.4049 195H51.7487C51.6348 195 51.5778 194.937 51.5778 194.812V190.974H50.32ZM55.1323 195C54.9728 195 54.8931 194.915 54.8931 194.744V190.355C54.8931 190.184 54.9728 190.099 55.1323 190.099H55.6519C55.8114 190.099 55.8911 190.184 55.8911 190.355V192.026H57.73V190.355C57.73 190.184 57.8098 190.099 57.9693 190.099H58.4888C58.6483 190.099 58.728 190.184 58.728 190.355V194.744C58.728 194.915 58.6483 195 58.4888 195H57.9693C57.8098 195 57.73 194.915 57.73 194.744V192.874H55.8911V194.744C55.8911 194.915 55.8114 195 55.6519 195H55.1323ZM60.2011 195C60.0415 195 59.9618 194.915 59.9618 194.744V190.355C59.9618 190.184 60.0415 190.099 60.2011 190.099H61.7836C62.4877 190.099 63.0015 190.208 63.3251 190.427C63.6486 190.643 63.8104 190.996 63.8104 191.486C63.8104 191.851 63.6794 192.141 63.4174 192.358C63.1553 192.574 62.8226 192.718 62.4193 192.789V192.795C62.6381 192.877 62.8033 192.991 62.9149 193.137C63.0266 193.283 63.1177 193.411 63.1884 193.52L63.9403 194.706C64.0656 194.902 64.0223 195 63.8104 195H63.2157C63.0904 195 62.9878 194.933 62.9081 194.798L62.2177 193.646C62.1425 193.523 62.0046 193.389 61.8041 193.243C61.6058 193.095 61.4087 193.021 61.2128 193.021H60.9598V194.744C60.9598 194.915 60.8801 195 60.7206 195H60.2011ZM60.9598 192.173H61.5717C62.0274 192.173 62.351 192.122 62.5424 192.02C62.736 191.915 62.8329 191.75 62.8329 191.524C62.8329 191.278 62.7395 191.118 62.5526 191.045C62.368 190.97 62.0957 190.933 61.7357 190.933H60.9598V192.173ZM64.9827 192.959V190.287C64.9827 190.161 65.0624 190.099 65.2219 190.099H65.7414C65.9009 190.099 65.9807 190.161 65.9807 190.287V192.925C65.9807 193.541 66.0707 193.926 66.2507 194.081C66.433 194.233 66.6381 194.31 66.866 194.31C67.0938 194.31 67.2978 194.233 67.4778 194.081C67.6601 193.926 67.7512 193.541 67.7512 192.925V190.287C67.7512 190.161 67.831 190.099 67.9905 190.099H68.51C68.6695 190.099 68.7493 190.161 68.7493 190.287V192.959C68.7493 193.757 68.5806 194.316 68.2434 194.638C67.9062 194.957 67.447 195.116 66.866 195.116C66.2849 195.116 65.8258 194.957 65.4885 194.638C65.1513 194.316 64.9827 193.757 64.9827 192.959Z" fill="white"/>
<path d="M27.4141 204.109C27.2786 203.854 27.3698 203.656 27.6875 203.516C27.9896 203.38 28.3047 203.19 28.6328 202.945C28.9609 202.701 29.2292 202.448 29.4375 202.188C29.6719 201.896 29.8958 201.75 30.1094 201.75H31.3516C31.6641 201.75 31.8203 201.906 31.8203 202.219V212.531C31.8203 212.844 31.6641 213 31.3516 213H30.1016C29.7891 213 29.6328 212.844 29.6328 212.531V205.102C29.6328 204.893 29.6432 204.685 29.6641 204.477H29.6328C29.4714 204.68 29.2943 204.854 29.1016 205C28.9089 205.146 28.7135 205.26 28.5156 205.344C28.2708 205.448 28.0859 205.38 27.9609 205.141L27.4141 204.109ZM34.6872 213C34.2966 213 34.1013 212.831 34.1013 212.492V212.117C34.1013 211.846 34.2263 211.578 34.4763 211.312L36.8122 208.852C37.5153 208.107 38.1585 207.445 38.7419 206.867C39.3252 206.284 39.6169 205.695 39.6169 205.102C39.6169 204.508 39.4684 204.073 39.1716 203.797C38.8799 203.516 38.5075 203.375 38.0544 203.375C37.3356 203.375 36.8356 203.542 36.5544 203.875C36.2731 204.208 36.07 204.565 35.945 204.945C35.8252 205.315 35.6065 205.448 35.2888 205.344L34.4997 205.078C34.2445 204.99 34.1716 204.745 34.2809 204.344C34.4841 203.599 34.8981 202.961 35.5231 202.43C36.1481 201.893 37.0752 201.625 38.3044 201.625C39.5856 201.625 40.5153 201.956 41.0934 202.617C41.6716 203.273 41.9606 203.987 41.9606 204.758C41.9606 205.768 41.5388 206.656 40.695 207.422C39.8513 208.182 39.0856 208.924 38.3981 209.648L37.07 211.047V211.094C37.3825 211.073 37.6429 211.062 37.8513 211.062H41.4997C41.8903 211.062 42.0856 211.232 42.0856 211.57V212.492C42.0856 212.831 41.8903 213 41.4997 213H34.6872ZM43.5462 215.953C43.3015 215.859 43.2364 215.667 43.3509 215.375L48.5384 201.859C48.653 201.568 48.8301 201.469 49.0697 201.562L49.7025 201.805C49.9473 201.898 50.0124 202.091 49.8978 202.383L44.7103 215.898C44.5957 216.19 44.4186 216.289 44.1791 216.195L43.5462 215.953ZM51.3897 213C50.9991 213 50.8037 212.831 50.8037 212.492V212.117C50.8037 211.846 50.9287 211.578 51.1787 211.312L53.5147 208.852C54.2178 208.107 54.861 207.445 55.4444 206.867C56.0277 206.284 56.3194 205.695 56.3194 205.102C56.3194 204.508 56.1709 204.073 55.8741 203.797C55.5824 203.516 55.21 203.375 54.7569 203.375C54.0381 203.375 53.5381 203.542 53.2569 203.875C52.9756 204.208 52.7725 204.565 52.6475 204.945C52.5277 205.315 52.309 205.448 51.9912 205.344L51.2022 205.078C50.947 204.99 50.8741 204.745 50.9834 204.344C51.1866 203.599 51.6006 202.961 52.2256 202.43C52.8506 201.893 53.7777 201.625 55.0069 201.625C56.2881 201.625 57.2178 201.956 57.7959 202.617C58.3741 203.273 58.6631 203.987 58.6631 204.758C58.6631 205.768 58.2412 206.656 57.3975 207.422C56.5537 208.182 55.7881 208.924 55.1006 209.648L53.7725 211.047V211.094C54.085 211.073 54.3454 211.062 54.5537 211.062H58.2022C58.5928 211.062 58.7881 211.232 58.7881 211.57V212.492C58.7881 212.831 58.5928 213 58.2022 213H51.3897ZM60.4831 210.008C60.4831 209.112 60.7566 208.417 61.3034 207.922C61.8555 207.422 62.3295 207.117 62.7253 207.008V206.969C62.2826 206.828 61.8503 206.552 61.4284 206.141C61.0118 205.724 60.8034 205.177 60.8034 204.5C60.8034 203.688 61.1316 203.005 61.7878 202.453C62.4493 201.901 63.3529 201.625 64.4987 201.625C65.6446 201.625 66.5456 201.901 67.2019 202.453C67.8633 203.005 68.1941 203.688 68.1941 204.5C68.1941 205.177 67.9831 205.724 67.5612 206.141C67.1446 206.552 66.7149 206.828 66.2722 206.969V207.008C66.668 207.117 67.1394 207.422 67.6862 207.922C68.2383 208.417 68.5144 209.112 68.5144 210.008C68.5144 210.971 68.1993 211.755 67.5691 212.359C66.9441 212.964 65.9206 213.266 64.4987 213.266C63.0769 213.266 62.0508 212.964 61.4206 212.359C60.7956 211.755 60.4831 210.971 60.4831 210.008ZM62.8269 209.773C62.8269 210.362 62.9571 210.799 63.2175 211.086C63.4779 211.372 63.905 211.516 64.4987 211.516C65.0925 211.516 65.5196 211.372 65.78 211.086C66.0404 210.799 66.1706 210.362 66.1706 209.773C66.1706 209.326 66.0274 208.914 65.7409 208.539C65.4597 208.159 65.0456 207.969 64.4987 207.969C63.9519 207.969 63.5352 208.159 63.2487 208.539C62.9675 208.914 62.8269 209.326 62.8269 209.773ZM63.0847 204.734C63.0847 205.151 63.2019 205.479 63.4362 205.719C63.6758 205.958 64.03 206.078 64.4987 206.078C64.9675 206.078 65.3191 205.958 65.5534 205.719C65.793 205.479 65.9128 205.151 65.9128 204.734C65.9128 204.318 65.7878 203.987 65.5378 203.742C65.293 203.497 64.9467 203.375 64.4987 203.375C64.0508 203.375 63.7019 203.497 63.4519 203.742C63.2071 203.987 63.0847 204.318 63.0847 204.734Z" fill="white"/>
<path d="M27.7969 240C27.4323 240 27.25 239.805 27.25 239.414V229.383C27.25 228.992 27.4323 228.797 27.7969 228.797H30.5234C32.9193 228.797 34.5391 229.281 35.3828 230.25C36.2318 231.219 36.6562 232.596 36.6562 234.383C36.6562 236.169 36.2318 237.552 35.3828 238.531C34.5391 239.51 32.9193 240 30.5234 240H27.7969ZM29.5312 238.062H30.375C31.9896 238.062 33.0339 237.763 33.5078 237.164C33.9818 236.56 34.2188 235.633 34.2188 234.383C34.2188 233.133 33.9818 232.211 33.5078 231.617C33.0339 231.018 31.9896 230.719 30.375 230.719H29.5312V238.062ZM38.5466 240C38.1716 240 38.0492 239.828 38.1794 239.484L42.0075 229.43C42.169 229.008 42.4137 228.797 42.7419 228.797H43.8356C44.1637 228.797 44.4085 229.008 44.57 229.43L48.3981 239.484C48.5283 239.828 48.4059 240 48.0309 240H46.7887C46.445 240 46.2054 239.82 46.07 239.461L45.2731 237.359H41.3044L40.5075 239.461C40.3721 239.82 40.1325 240 39.7887 240H38.5466ZM42.0309 235.422H44.5466L43.5856 232.938C43.471 232.646 43.4007 232.435 43.3747 232.305C43.3539 232.169 43.3304 231.971 43.3044 231.711H43.2731C43.2471 231.971 43.221 232.169 43.195 232.305C43.1742 232.435 43.1065 232.646 42.9919 232.938L42.0309 235.422ZM50.6556 240C50.291 240 50.1087 239.805 50.1087 239.414V229.383C50.1087 228.992 50.291 228.797 50.6556 228.797H54.2728C55.8822 228.797 57.0567 229.047 57.7962 229.547C58.5358 230.042 58.9056 230.849 58.9056 231.969C58.9056 232.802 58.6061 233.466 58.0072 233.961C57.4082 234.456 56.6478 234.784 55.7259 234.945V234.961C56.2259 235.148 56.6035 235.409 56.8587 235.742C57.114 236.076 57.3223 236.367 57.4837 236.617L59.2025 239.328C59.489 239.776 59.39 240 58.9056 240H57.5462C57.2598 240 57.0254 239.846 56.8431 239.539L55.265 236.906C55.0931 236.625 54.778 236.318 54.3197 235.984C53.8666 235.646 53.416 235.477 52.9681 235.477H52.39V239.414C52.39 239.805 52.2077 240 51.8431 240H50.6556ZM52.39 233.539H53.7884C54.8301 233.539 55.5697 233.422 56.0072 233.188C56.4499 232.948 56.6712 232.57 56.6712 232.055C56.6712 231.492 56.4577 231.128 56.0306 230.961C55.6087 230.789 54.9864 230.703 54.1634 230.703H52.39V233.539ZM62.1319 240C61.7673 240 61.585 239.805 61.585 239.414V229.383C61.585 228.992 61.7673 228.797 62.1319 228.797H63.3194C63.684 228.797 63.8662 228.992 63.8662 229.383V239.414C63.8662 239.805 63.684 240 63.3194 240H62.1319ZM67.2331 240C66.8685 240 66.6862 239.805 66.6862 239.414V229.383C66.6862 228.992 66.8685 228.797 67.2331 228.797H68.4206C68.7852 228.797 68.9675 228.992 68.9675 229.383V239.414C68.9675 239.805 68.7852 240 68.4206 240H67.2331ZM71.4359 240C71.0609 240 70.9385 239.828 71.0687 239.484L74.8969 229.43C75.0583 229.008 75.3031 228.797 75.6312 228.797H76.725C77.0531 228.797 77.2979 229.008 77.4594 229.43L81.2875 239.484C81.4177 239.828 81.2953 240 80.9203 240H79.6781C79.3344 240 79.0948 239.82 78.9594 239.461L78.1625 237.359H74.1937L73.3969 239.461C73.2615 239.82 73.0219 240 72.6781 240H71.4359ZM74.9203 235.422H77.4359L76.475 232.938C76.3604 232.646 76.2901 232.435 76.2641 232.305C76.2432 232.169 76.2198 231.971 76.1937 231.711H76.1625C76.1365 231.971 76.1104 232.169 76.0844 232.305C76.0635 232.435 75.9958 232.646 75.8812 232.938L74.9203 235.422ZM88.9197 239.164C88.5968 238.919 88.5186 238.672 88.6853 238.422L89.2869 237.516C89.4848 237.219 89.7739 237.203 90.1541 237.469C90.4457 237.672 90.8259 237.883 91.2947 238.102C91.7686 238.315 92.266 238.422 92.7869 238.422C93.1515 238.422 93.503 238.38 93.8416 238.297C94.1801 238.214 94.4379 238.052 94.615 237.812C94.7921 237.573 94.8806 237.289 94.8806 236.961C94.8806 236.727 94.8416 236.521 94.7634 236.344C94.6853 236.167 94.5577 236.021 94.3806 235.906C94.2035 235.792 94.0213 235.695 93.8338 235.617C93.5056 235.482 93.0916 235.349 92.5916 235.219C92.0968 235.083 91.6072 234.922 91.1228 234.734C90.6905 234.568 90.2947 234.339 89.9353 234.047C89.5759 233.755 89.2973 233.427 89.0994 233.062C88.9015 232.698 88.8025 232.211 88.8025 231.602C88.8025 230.878 89.0369 230.258 89.5056 229.742C89.9744 229.227 90.5134 228.896 91.1228 228.75C91.7322 228.604 92.3468 228.531 92.9666 228.531C93.5811 228.531 94.214 228.625 94.865 228.812C95.5213 229 96.016 229.234 96.3494 229.516C96.6775 229.792 96.7582 230.042 96.5916 230.266L95.9588 231.117C95.7452 231.409 95.4588 231.432 95.0994 231.188C94.8702 231.031 94.5551 230.857 94.1541 230.664C93.7582 230.471 93.3442 230.375 92.9119 230.375C92.6046 230.375 92.3207 230.401 92.0603 230.453C91.8051 230.505 91.5785 230.63 91.3806 230.828C91.1827 231.026 91.0838 231.271 91.0838 231.562C91.0838 231.844 91.1567 232.073 91.3025 232.25C91.4483 232.422 91.6098 232.552 91.7869 232.641C91.964 232.724 92.1436 232.794 92.3259 232.852C92.8884 233.034 93.391 233.195 93.8338 233.336C94.2765 233.471 94.6853 233.622 95.0603 233.789C95.5811 234.023 95.9796 234.258 96.2556 234.492C96.5317 234.727 96.7582 235.047 96.9353 235.453C97.1176 235.859 97.2088 236.344 97.2088 236.906C97.2088 237.74 96.9431 238.43 96.4119 238.977C95.8806 239.518 95.2895 239.867 94.6384 240.023C93.9926 240.185 93.3624 240.266 92.7478 240.266C91.8416 240.266 91.1046 240.177 90.5369 240C89.9692 239.828 89.4301 239.549 88.9197 239.164ZM99.8725 240C99.5079 240 99.3256 239.805 99.3256 239.414V229.383C99.3256 228.992 99.5079 228.797 99.8725 228.797H102.138C102.44 228.797 102.656 229.005 102.787 229.422L104.904 236.273C104.997 236.57 105.063 236.815 105.099 237.008C105.136 237.195 105.167 237.419 105.193 237.68H105.24C105.266 237.419 105.297 237.195 105.333 237.008C105.37 236.815 105.435 236.57 105.529 236.273L107.646 229.422C107.776 229.005 107.992 228.797 108.294 228.797H110.56C110.925 228.797 111.107 228.992 111.107 229.383V239.414C111.107 239.805 110.925 240 110.56 240H109.372C109.008 240 108.826 239.805 108.826 239.414V232.961C108.826 232.648 108.839 232.336 108.865 232.023H108.81L106.552 239.367C106.422 239.789 106.198 240 105.88 240H104.552C104.234 240 104.011 239.789 103.88 239.367L101.622 232.023H101.568C101.594 232.336 101.607 232.648 101.607 232.961V239.414C101.607 239.805 101.425 240 101.06 240H99.8725ZM113.474 229.469C113.208 229.021 113.331 228.797 113.841 228.797H115.208C115.479 228.797 115.719 228.977 115.927 229.336L117.591 232.234C117.638 232.312 117.776 232.557 118.005 232.969C118.234 233.375 118.367 233.771 118.403 234.156H118.435C118.471 233.771 118.604 233.375 118.833 232.969C119.062 232.557 119.2 232.312 119.247 232.234L120.911 229.336C121.12 228.977 121.359 228.797 121.63 228.797H122.997C123.508 228.797 123.63 229.021 123.364 229.469L119.56 235.898V239.57C119.56 239.857 119.377 240 119.013 240H117.825C117.461 240 117.278 239.857 117.278 239.57V235.898L113.474 229.469ZM125.481 240C125.117 240 124.934 239.805 124.934 239.414V229.383C124.934 228.992 125.117 228.797 125.481 228.797H129.098C130.708 228.797 131.882 229.047 132.622 229.547C133.361 230.042 133.731 230.849 133.731 231.969C133.731 232.802 133.432 233.466 132.833 233.961C132.234 234.456 131.473 234.784 130.552 234.945V234.961C131.052 235.148 131.429 235.409 131.684 235.742C131.94 236.076 132.148 236.367 132.309 236.617L134.028 239.328C134.315 239.776 134.216 240 133.731 240H132.372C132.085 240 131.851 239.846 131.669 239.539L130.091 236.906C129.919 236.625 129.604 236.318 129.145 235.984C128.692 235.646 128.242 235.477 127.794 235.477H127.216V239.414C127.216 239.805 127.033 240 126.669 240H125.481ZM127.216 233.539H128.614C129.656 233.539 130.395 233.422 130.833 233.188C131.276 232.948 131.497 232.57 131.497 232.055C131.497 231.492 131.283 231.128 130.856 230.961C130.434 230.789 129.812 230.703 128.989 230.703H127.216V233.539ZM136.957 240C136.593 240 136.411 239.805 136.411 239.414V229.383C136.411 228.992 136.593 228.797 136.957 228.797H138.114C138.562 228.797 138.9 228.979 139.129 229.344L143.114 235.742H143.168C143.142 235.43 143.129 235.117 143.129 234.805V229.383C143.129 228.992 143.312 228.797 143.676 228.797H144.864C145.228 228.797 145.411 228.992 145.411 229.383V239.414C145.411 239.805 145.228 240 144.864 240H143.786C143.338 240 142.999 239.818 142.77 239.453L138.707 232.938H138.653C138.679 233.25 138.692 233.562 138.692 233.875V239.414C138.692 239.805 138.51 240 138.145 240H136.957ZM147.652 234.398C147.652 232.602 148.116 231.174 149.043 230.117C149.97 229.06 151.293 228.531 153.012 228.531C154.731 228.531 156.054 229.06 156.981 230.117C157.908 231.174 158.371 232.602 158.371 234.398C158.371 236.195 157.908 237.622 156.981 238.68C156.054 239.737 154.731 240.266 153.012 240.266C151.293 240.266 149.97 239.737 149.043 238.68C148.116 237.622 147.652 236.195 147.652 234.398ZM150.09 234.398C150.09 235.701 150.322 236.698 150.785 237.391C151.254 238.078 151.996 238.422 153.012 238.422C154.027 238.422 154.767 238.078 155.231 237.391C155.699 236.698 155.934 235.701 155.934 234.398C155.934 233.096 155.699 232.102 155.231 231.414C154.767 230.721 154.027 230.375 153.012 230.375C151.996 230.375 151.254 230.721 150.785 231.414C150.322 232.102 150.09 233.096 150.09 234.398ZM159.894 229.312C159.764 228.969 159.887 228.797 160.262 228.797H161.504C161.853 228.797 162.092 228.977 162.223 229.336L164.613 235.859C164.733 236.193 164.803 236.417 164.824 236.531C164.845 236.641 164.868 236.826 164.894 237.086H164.926C164.952 236.826 164.975 236.641 164.996 236.531C165.017 236.417 165.087 236.193 165.207 235.859L167.598 229.336C167.728 228.977 167.967 228.797 168.316 228.797H169.558C169.933 228.797 170.056 228.969 169.926 229.312L166.191 239.367C166.035 239.789 165.79 240 165.457 240H164.363C164.03 240 163.785 239.789 163.629 239.367L159.894 229.312ZM169.566 240C169.191 240 169.069 239.828 169.199 239.484L173.027 229.43C173.188 229.008 173.433 228.797 173.761 228.797H174.855C175.183 228.797 175.428 229.008 175.589 229.43L179.417 239.484C179.548 239.828 179.425 240 179.05 240H177.808C177.464 240 177.225 239.82 177.089 239.461L176.292 237.359H172.324L171.527 239.461C171.391 239.82 171.152 240 170.808 240H169.566ZM173.05 235.422H175.566L174.605 232.938C174.49 232.646 174.42 232.435 174.394 232.305C174.373 232.169 174.35 231.971 174.324 231.711H174.292C174.266 231.971 174.24 232.169 174.214 232.305C174.194 232.435 174.126 232.646 174.011 232.938L173.05 235.422Z" fill="white"/>
<g filter="url(#filter1_b_12_28)">
<ellipse cx="375.5" cy="233" rx="13.5" ry="14" fill="url(#paint3_radial_12_28)" fill-opacity="0.3"/>
</g>
<g filter="url(#filter2_b_12_28)">
<ellipse cx="358.5" cy="233" rx="13.5" ry="14" fill="url(#paint4_radial_12_28)" fill-opacity="0.5"/>
</g>
</g>
<defs>
<filter id="filter0_b_12_28" x="-15" y="-15" width="440" height="302" filterUnits="userSpaceOnUse" color-interpolation-filters="sRGB">
<feFlood flood-opacity="0" result="BackgroundImageFix"/>
<feGaussianBlur in="BackgroundImageFix" stdDeviation="7.5"/>
<feComposite in2="SourceAlpha" operator="in" result="effect1_backgroundBlur_12_28"/>
<feBlend mode="normal" in="SourceGraphic" in2="effect1_backgroundBlur_12_28" result="shape"/>
</filter>
<filter id="filter1_b_12_28" x="347" y="204" width="57" height="58" filterUnits="userSpaceOnUse" color-interpolation-filters="sRGB">
<feFlood flood-opacity="0" result="BackgroundImageFix"/>
<feGaussianBlur in="BackgroundImageFix" stdDeviation="7.5"/>
<feComposite in2="SourceAlpha" operator="in" result="effect1_backgroundBlur_12_28"/>
<feBlend mode="normal" in="SourceGraphic" in2="effect1_backgroundBlur_12_28" result="shape"/>
</filter>
<filter id="filter2_b_12_28" x="330" y="204" width="57" height="58" filterUnits="userSpaceOnUse" color-interpolation-filters="sRGB">
<feFlood flood-opacity="0" result="BackgroundImageFix"/>
<feGaussianBlur in="BackgroundImageFix" stdDeviation="7.5"/>
<feComposite in2="SourceAlpha" operator="in" result="effect1_backgroundBlur_12_28"/>
<feBlend mode="normal" in="SourceGraphic" in2="effect1_backgroundBlur_12_28" result="shape"/>
</filter>
<radialGradient id="paint0_radial_12_28" cx="0" cy="0" r="1" gradientUnits="userSpaceOnUse" gradientTransform="translate(28 37) rotate(30.1032) scale(376.825 568.008)">
<stop stop-color="#FFFCFC" stop-opacity="0.7"/>
<stop offset="1" stop-color="#FFFEFE" stop-opacity="0.1"/>
</radialGradient>
<linearGradient id="paint1_linear_12_28" x1="174.5" y1="174.655" x2="173.282" y2="116.729" gradientUnits="userSpaceOnUse">
<stop stop-color="#514FB4"/>
<stop offset="1" stop-color="#8281D3"/>
</linearGradient>
<linearGradient id="paint2_linear_12_28" x1="20" y1="189.556" x2="367.909" y2="231.389" gradientUnits="userSpaceOnUse">
<stop stop-color="#5ABACF"/>
<stop offset="0.5" stop-color="#584EC3"/>
<stop offset="1" stop-color="#AC45C6"/>
</linearGradient>
<radialGradient id="paint3_radial_12_28" cx="0" cy="0" r="1" gradientUnits="userSpaceOnUse" gradientTransform="translate(363.844 222.809) rotate(42.1848) scale(28.9727 50.0811)">
<stop stop-color="#FFFCFC" stop-opacity="0.7"/>
<stop offset="1" stop-color="#FFFEFE" stop-opacity="0.1"/>
</radialGradient>
<radialGradient id="paint4_radial_12_28" cx="0" cy="0" r="1" gradientUnits="userSpaceOnUse" gradientTransform="translate(346.844 222.809) rotate(42.1848) scale(28.9727 50.0811)">
<stop stop-color="#FFFCFC" stop-opacity="0.7"/>
<stop offset="1" stop-color="#FFFEFE" stop-opacity="0.1"/>
</radialGradient>
<clipPath id="clip0_12_28">
<rect width="410" height="272" fill="white"/>
</clipPath>
</defs>
</svg>
